<svg width="373" height="59" viewBox="0 0 373 59" fill="none" xmlns="http://www.w3.org/2000/svg">
<g clip-path="url(#clip0_1_378)">
<path d="M253.819 58.1399C253.819 56.1565 253.893 54.1691 253.781 52.1934C253.711 50.9847 254.176 50.7794 255.253 50.791C259.51 50.8453 263.772 50.822 268.029 50.8027C269.656 50.7949 271.233 50.5857 272.271 49.1098C272.48 48.8115 272.794 48.4473 272.647 48.0638C272.465 47.6028 271.977 47.7887 271.616 47.7887C268.614 47.7733 265.616 47.7887 262.613 47.7655C256.411 47.7151 253.649 45.6968 252.328 39.6264C251.243 34.6445 251.1 29.5657 252.646 24.6071C253.908 20.5511 257.507 17.8006 261.738 17.4597C267.2 17.018 272.67 17.2234 278.132 17.3125C281.596 17.3706 284.21 18.8582 284.129 23.6192C284.04 28.5972 284.148 33.583 284.083 38.561C284.067 39.7658 284.4 40.1183 285.617 40.1067C292.683 40.0447 299.749 39.9905 306.815 40.0835C312.924 40.1687 314.458 37.4492 314.78 32.1884C314.892 30.3134 314.718 28.4152 315.202 26.5712C316.748 20.7099 319.688 18.0291 325.735 17.2737C330.45 16.6849 335.191 16.6965 339.898 17.479C346.062 18.5056 348.944 22.0735 349.711 28.1362C350.157 31.6615 350.184 35.1713 349.417 38.6462C348.13 44.4727 345.198 46.8164 339.616 47.6454C334.304 48.4357 328.892 48.6178 323.639 47.3006C321.389 46.735 319.425 46.4561 317.197 47.2929C315.597 47.8933 313.776 47.7733 312.033 47.7694C303.177 47.7578 294.321 47.781 285.462 47.7384C284.478 47.7345 283.997 47.9398 283.85 48.9819C283.157 53.8941 279.903 57.3109 274.192 57.8997C274.076 57.9114 273.972 58.0508 273.863 58.1283H253.819V58.1399ZM332.174 39.9246C335.641 40.006 337.733 38.5378 338.236 35.4657C338.62 33.1259 338.589 30.7512 338.019 28.4307C337.729 27.2414 336.915 26.4085 335.807 25.9049C333.739 24.9596 331.616 24.9829 329.481 25.6724C327.672 26.2535 326.727 27.6133 326.483 29.3914C326.247 31.0998 326.219 32.8198 326.34 34.5747C326.584 38.2046 328.691 39.8665 332.174 39.9285V39.9246ZM272.875 33.4862C272.875 31.6499 272.906 29.8098 272.864 27.9735C272.829 26.3775 272.147 25.6957 270.551 25.6182C269.54 25.5717 268.517 25.5833 267.506 25.6376C265.499 25.746 264.209 26.8114 263.663 28.7561C262.927 31.3749 262.966 34.0208 263.566 36.6434C263.992 38.5068 265.217 39.5799 267.173 39.8898C268.719 40.1338 270.26 40.0176 271.802 40.1028C272.647 40.1493 272.895 39.7929 272.883 38.9988C272.848 37.1625 272.871 35.3224 272.871 33.4862H272.875Z" fill="#1391CE"/>
<path d="M58.8943 58.1398C58.8943 50.5933 58.8788 43.0469 58.9137 35.5005C58.933 30.999 61.2419 27.6557 65.4374 26.2534C69.4624 24.9053 74.9866 25.312 77.9231 29.3719C78.45 30.1002 78.7754 29.7864 79.1744 29.2596C82.5253 24.8239 89.5759 24.851 93.3607 26.7957C96.9209 28.6281 98.0056 31.9636 98.056 35.6477C98.1567 43.1438 98.1024 50.6437 98.1141 58.1437H87.0772C87.0772 51.2829 87.0772 44.4222 87.0772 37.5653C87.0772 36.9881 87.0772 36.4302 86.8525 35.8608C86.593 35.2061 86.1513 34.9504 85.516 35.0124C84.9039 35.0705 84.3577 35.3416 84.2337 35.9963C84.1098 36.6549 84.0749 37.3406 84.0749 38.0108C84.0633 42.6479 84.0594 47.285 84.0749 51.9221C84.0827 53.9947 84.1408 56.0672 84.1756 58.1398H72.8482C72.8792 57.9035 72.9412 57.6672 72.9412 57.427C72.9451 50.7212 72.949 44.0154 72.9412 37.3096C72.9412 36.8757 72.8831 36.4457 72.8405 36.0118C72.7708 35.299 72.2749 34.9697 71.6551 35.0007C71.0778 35.0279 70.4231 35.0472 70.214 35.8801C70.0357 36.5929 69.9583 37.2941 69.9583 38.0185C69.9583 44.7243 69.9505 51.4301 69.9428 58.1359H58.9059L58.8943 58.1398Z" fill="#1391CE"/>
<path d="M110.894 58.1401C109.259 57.2956 107.435 56.823 106.125 55.3586C104.459 53.4991 103.665 51.322 103.646 48.9008C103.592 41.5519 103.638 34.203 103.603 26.8542C103.599 25.9399 103.793 25.5796 104.789 25.599C107.69 25.661 110.596 25.6649 113.497 25.599C114.508 25.5758 114.679 25.967 114.675 26.8658C114.644 33.5367 114.66 40.2115 114.671 46.8824C114.671 47.541 114.567 48.2577 115.361 48.6296C116.29 49.0635 117.305 48.5172 117.507 47.3899C117.608 46.8243 117.561 46.2316 117.561 45.6544C117.561 39.4638 117.6 33.2771 117.534 27.0866C117.522 25.8431 117.902 25.5564 119.08 25.5913C121.834 25.6765 124.596 25.6649 127.351 25.599C128.373 25.5758 128.652 25.8818 128.644 26.8968C128.598 33.3275 128.606 39.7583 128.637 46.189C128.641 47.2272 128.296 48.587 129.969 48.7535C131.066 48.862 131.604 48.0446 131.612 46.1929C131.639 39.859 131.658 33.5251 131.593 27.1912C131.581 25.9244 131.883 25.5331 133.189 25.5874C135.943 25.6997 138.705 25.6494 141.459 25.6029C142.331 25.5874 142.633 25.8314 142.629 26.7379C142.583 34.4238 142.629 42.1136 142.54 49.7995C142.498 53.4643 139.139 56.9198 134.998 57.8418C134.769 57.8922 134.506 57.8341 134.421 58.1401H130.062C127.467 57.5396 125.135 56.4898 123.531 54.2313C123.279 53.8749 123.078 53.7664 122.772 54.1693C121.09 56.3891 118.774 57.5551 116.116 58.1401H110.886H110.894Z" fill="#1391CE"/>
<path d="M3.12106 58.1399C2.01312 56.8499 2.00537 55.1918 1.72257 53.6655C0.517776 47.1185 0.355071 40.4941 1.1531 33.9123C2.28817 24.5606 4.99605 15.7241 11.1595 8.32879C15.1884 3.49411 20.147 0.317479 26.7637 0.66226C31.335 0.902444 35.0656 3.00599 38.2732 6.0974C43.7626 11.3815 46.73 18.0679 48.7328 25.2695C50.6233 32.0799 51.0649 39.0453 50.7395 46.0571C50.573 49.6095 50.0345 53.1464 49.221 56.6213C49.0931 57.1753 48.88 57.7293 48.4384 58.1438H41.4653C41.2484 57.6324 40.8881 57.1985 41.0043 56.5438C41.6978 52.759 41.7249 48.9122 41.9612 45.0847C42.0348 43.9109 42.2014 42.6984 41.8024 41.5285C41.8179 41.4394 41.8217 41.3503 41.8217 41.2573C41.8333 33.0716 40.6944 25.0642 38.0369 17.3008C36.5764 13.0395 34.7014 9.00285 31.366 5.81847C27.9646 2.57211 23.7149 2.53725 20.271 5.71388C17.5864 8.18933 15.8702 11.2962 14.495 14.6007C12.0737 20.4155 10.8418 26.5363 10.129 32.7656C9.81523 35.5277 9.5673 38.3053 9.74938 41.0984V41.5246C9.50919 41.7531 9.54018 42.0514 9.54406 42.3342C9.60217 46.4522 9.73001 50.5664 10.2762 54.6611C10.4273 55.8039 10.8147 57.0242 10.0864 58.1438H3.12106V58.1399Z" fill="#1391CE"/>
<path d="M149.529 58.1402C149.521 50.9347 149.432 43.7292 149.529 36.5275C149.599 31.4565 152.907 27.6329 157.924 26.7768C161.604 26.1492 165.35 26.2693 169.05 26.6993C172.986 27.1564 174.981 29.783 175.895 33.3896C176.166 34.455 176.309 35.5552 176.306 36.6786C176.275 43.8338 176.267 50.9889 176.251 58.1441H165.215C165.23 51.2369 165.277 44.3296 165.242 37.4263C165.234 35.6481 164.529 34.9857 163.068 34.9586C161.589 34.9314 160.636 35.8612 160.527 37.5231C160.469 38.4374 160.577 39.3671 160.477 40.2736C160.314 41.7108 160.717 42.4856 162.317 42.1835C163.386 41.982 163.622 42.536 163.591 43.489C163.533 45.178 163.572 46.8709 163.568 48.5638C163.564 50.5241 163.56 50.555 161.616 50.5977C160.868 50.6132 160.453 50.7449 160.481 51.632C160.55 53.8014 160.546 55.9747 160.57 58.148H149.533L149.529 58.1402Z" fill="#1391CE"/>
<path d="M205.306 58.1403C205.298 56.1104 205.353 54.0765 205.263 52.0466C205.217 50.9696 205.647 50.7759 206.604 50.7876C208.095 50.8031 209.598 50.9619 211.09 50.6442C213.267 50.1832 214.294 48.9552 214.294 46.7044C214.294 31.8091 214.317 16.9138 214.259 2.01852C214.255 0.60841 214.6 0.228764 216.002 0.286873C218.853 0.406965 221.712 0.348856 224.567 0.310116C225.385 0.298494 225.644 0.550301 225.644 1.3832C225.621 16.232 225.636 31.077 225.605 45.9258C225.605 47.2158 225.396 48.5252 225.117 49.7881C224.091 54.4291 220.829 57.3113 216.107 57.8652C215.789 57.904 215.413 57.78 215.188 58.1442H205.31L205.306 58.1403Z" fill="#1391CE"/>
<path d="M190.779 58.1404C189.721 57.8615 188.66 57.6058 187.614 57.2959C183.616 56.1221 180.873 52.5038 180.598 48.3354C180.141 41.4321 180.486 34.5248 180.346 27.6215C180.327 26.7227 180.606 26.4632 181.489 26.4748C184.437 26.5213 187.389 26.5407 190.337 26.4671C191.414 26.4399 191.72 26.7266 191.712 27.8229C191.658 34.0561 191.681 40.2893 191.685 46.5224C191.685 49.1141 192.894 50.47 195.443 50.6792C196.694 50.7838 197.957 50.8419 199.208 50.7877C200.289 50.7373 200.762 50.9813 200.696 52.1978C200.587 54.1735 200.661 56.1569 200.657 58.1404H190.779Z" fill="#1391CE"/>
<path d="M369.158 5.53613C370.208 5.7337 371.323 5.35793 372.338 5.88866V9.08079C371.285 9.10016 370.227 9.1234 369.173 9.14277C366.442 9.08079 363.703 8.94907 360.562 9.26286C361.759 9.79359 362.499 10.1268 363.37 10.2933C365.346 10.6691 367.271 11.3199 369.22 11.8545C370.696 12.118 371.649 13.0438 372.335 14.3067V17.2083C371.571 18.3627 370.518 19.0794 369.146 19.3041C365.373 19.3235 361.596 19.0949 357.823 19.4281C357.176 19.153 356.498 19.2654 355.839 19.3002C355.072 19.339 354.879 19.0136 354.852 18.2891C354.759 15.7556 354.728 15.7595 357.823 15.465C360.287 15.465 362.747 15.465 365.485 15.465C364.192 14.268 362.84 14.4307 361.639 14.1092C360.376 13.7683 359.093 13.4971 357.819 13.1949C354.968 11.9436 354.092 10.3747 354.848 8.01545C355.324 6.52786 356.587 6.09398 357.834 5.60586C361.608 5.58262 365.377 5.55938 369.15 5.54001L369.158 5.53613Z" fill="#75BF46"/>
<path d="M244.479 23.8361C244.479 31.1849 244.456 38.5377 244.502 45.8865C244.51 46.9906 244.278 47.4012 243.081 47.3664C240.179 47.2773 237.274 47.3121 234.372 47.3509C233.493 47.3625 233.082 47.1882 233.086 46.1655C233.117 31.2237 233.117 16.2819 233.094 1.34009C233.094 0.398723 233.357 0.0655644 234.322 0.0849341C237.32 0.139169 240.323 0.150791 243.321 0.0849341C244.344 0.0616904 244.499 0.46458 244.495 1.35171C244.468 8.84779 244.479 16.3439 244.479 23.8361Z" fill="#1391CE"/>
<path d="M357.827 19.4278C361.596 19.0985 365.373 19.327 369.15 19.3038C369.158 28.148 369.15 36.9922 369.193 45.8364C369.197 46.8514 368.91 47.1574 367.895 47.1381C364.947 47.0761 361.995 47.0644 359.047 47.1419C357.97 47.169 357.796 46.7739 357.8 45.8132C357.838 37.0154 357.827 28.2216 357.831 19.4239L357.827 19.4278Z" fill="#1391CE"/>
<path d="M369.158 5.53606C365.385 5.5593 361.616 5.58254 357.842 5.60191C357.835 4.06009 357.862 2.51438 357.807 0.972556C357.78 0.201642 358.059 0.000196663 358.807 0.00794454C361.894 0.04281 364.986 0.0544318 368.073 0.000196663C369.023 -0.019173 369.212 0.372095 369.185 1.19724C369.139 2.64222 369.162 4.09108 369.158 5.53993V5.53606Z" fill="#1391CE"/>
<path d="M357.827 13.1909C359.101 13.4931 360.384 13.7643 361.647 14.1052C362.844 14.4267 364.196 14.264 365.493 15.461C362.755 15.461 360.291 15.461 357.831 15.461C357.831 14.7018 357.831 13.9463 357.831 13.1909H357.827Z" fill="#1391CE"/>
<path d="M9.75729 41.0947C14.7624 36.2368 19.7908 31.3982 24.7533 26.4938C25.5862 25.6725 26.0123 25.7229 26.8026 26.5093C31.7806 31.4525 36.8129 36.3491 41.8258 41.2574C41.8258 41.3465 41.8258 41.4395 41.8064 41.5286C33.4426 41.548 25.0749 41.5751 16.711 41.5867C14.3905 41.5867 12.0739 41.548 9.75342 41.5247C9.75342 41.3814 9.75342 41.2419 9.75729 41.0986V41.0947Z" fill="#75BF46"/>
<path d="M369.174 9.14634C369.189 10.049 369.205 10.9555 369.224 11.8581C367.279 11.3196 365.35 10.6727 363.374 10.293C362.503 10.1264 361.763 9.79329 360.566 9.26256C363.707 8.94877 366.442 9.08436 369.177 9.14246L369.174 9.14634Z" fill="#1391CE"/>
</g>
<defs>
<clipPath id="clip0_1_378">
<rect width="371.677" height="58.1401" fill="white" transform="translate(0.661133)"/>
</clipPath>
</defs>
</svg>
